<?xml version="1.0" standalone="no"?>
<!DOCTYPE svg PUBLIC "-//W3C//DTD SVG 1.1//EN" "http://www.w3.org/Graphics/SVG/1.1/DTD/svg11.dtd">
<svg xmlns="http://www.w3.org/2000/svg" xmlns:xlink="http://www.w3.org/1999/xlink" width="900" zoomAndPan="magnify" viewBox="0 0 900 470.999988" height="471" preserveAspectRatio="xMidYMid meet" version="1.0"><defs><clipPath id="4b51cf035b"><path d="M 397 156 L 554.699219 156 L 554.699219 289.78125 L 397 289.78125 Z M 397 156 " clip-rule="nonzero"/></clipPath></defs><g clip-path="url(#4b51cf035b)"><path fill="#3fd0d4" d="M 521.496094 181.082031 C 507.796875 165.253906 487.902344 156.160156 466.972656 156.160156 C 444.644531 156.160156 420.539062 167.375 408.582031 186.726562 C 394.054688 210.238281 394.035156 240.007812 408.527344 263.53125 C 425.453125 291.011719 463.734375 293.085938 492.605469 285.707031 C 509.851562 281.308594 541.203125 271.773438 554.484375 288.519531 C 543.746094 263.519531 509.15625 270.691406 488.773438 276.105469 C 465.371094 282.335938 447.96875 282.324219 436.5625 276.058594 C 418.828125 266.039062 409.597656 249.445312 408.863281 226.28125 C 407.070312 170.039062 480.144531 139.789062 521.496094 181.082031 Z M 521.496094 181.082031 " fill-opacity="1" fill-rule="evenodd"/></g><path fill="#3fd0d4" d="M 420.105469 250.992188 C 423.554688 260.46875 431.667969 269.433594 441.503906 272.414062 C 480.117188 284.117188 506.710938 250.628906 550.378906 274.878906 C 529.203125 254.082031 511.550781 256.835938 485.8125 262.253906 C 448.300781 270.152344 426.402344 266.394531 420.105469 250.992188 Z M 420.105469 250.992188 " fill-opacity="1" fill-rule="evenodd"/><path fill="#3fd0d4" d="M 460.25 259.402344 C 459.660156 264.667969 460.539062 267.507812 461.867188 268.273438 C 463.71875 268.410156 464.65625 268.699219 466.011719 267.96875 C 466.699219 267.230469 466.609375 264.074219 466.324219 262.359375 C 465.816406 260.238281 465.574219 259.179688 465.574219 259.179688 C 465.667969 257.132812 465.035156 254.515625 463.683594 251.328125 C 463.90625 249.6875 463.328125 247.1875 461.988281 243.882812 L 461.996094 243.875 C 462.160156 242.503906 461.5 240.242188 460.074219 237.125 L 460.085938 237.125 C 460.003906 235.582031 459.25 233.265625 457.808594 230.175781 C 457.726562 229.527344 457.582031 228.828125 457.390625 228.0625 L 457.402344 228.066406 C 457.476562 228.554688 457.691406 229 458.082031 229.351562 C 458.089844 228.882812 458.140625 228.492188 458.269531 228.109375 C 458.429688 228.085938 458.601562 228.042969 458.761719 227.984375 C 458.328125 229.378906 458.53125 229.878906 460.09375 231.8125 C 460.429688 230.464844 460.527344 229.515625 461.988281 228.402344 C 459.773438 231.261719 460.890625 232.753906 461.214844 234.234375 C 461.480469 233.320312 461.304688 232.558594 461.769531 231.371094 C 462.449219 229.625 463.410156 229.652344 463.9375 228.914062 C 463.09375 230.292969 460.664062 233.179688 462.476562 235.71875 C 462.730469 234.171875 462.765625 232.550781 464.335938 230.984375 C 462.523438 233.628906 462.652344 236.972656 465.832031 239.019531 C 465.832031 237.460938 465.253906 235.871094 466.507812 234.109375 C 465.886719 236.308594 465.816406 238.9375 467.933594 241.042969 C 468.117188 240.148438 468.003906 239.617188 468.097656 238.847656 C 468.1875 238.136719 468.207031 237.632812 468.316406 236.953125 C 468.335938 239.363281 468.222656 240.835938 469.671875 242.222656 C 470.109375 240.804688 469.519531 240.421875 470.027344 239.144531 C 470.445312 240.566406 470.039062 242.125 471.90625 243.320312 C 471.199219 241.671875 471.050781 241.5625 471.027344 239.984375 C 471.015625 238.617188 471.050781 237.902344 470.601562 236.453125 L 471.46875 238.429688 C 471.667969 237.34375 471.703125 236.5625 470.890625 235.320312 C 470.980469 235.050781 471.605469 236.179688 471.089844 234.21875 C 470.855469 233.351562 470.5625 232.976562 469.738281 232.242188 L 470.453125 232.46875 C 470.742188 232.480469 470.785156 232.941406 470.652344 232.132812 C 470.351562 230.238281 468.460938 229.054688 467.046875 228.527344 C 467.796875 228.707031 468.679688 229.078125 469.4375 229.253906 C 468.417969 227.894531 466.65625 226.867188 465.203125 226.375 L 467.152344 226.714844 C 465.449219 225.269531 465.367188 224.660156 463.308594 223.824219 C 462.835938 223.625 462.257812 223.085938 461.527344 222.785156 C 460.9375 222.316406 460.558594 221.734375 460.210938 220.664062 C 462.050781 222.859375 462.023438 223.128906 465.1875 222.671875 C 464.199219 221.6875 463.4375 221.121094 463.226562 219.304688 C 464.550781 222.671875 466.402344 222.464844 467.84375 222.9375 C 467.195312 222.25 466.449219 222.007812 465.667969 221.007812 C 464.507812 219.523438 465.023438 218.710938 464.65625 217.882812 C 465.414062 219.308594 466.65625 222.875 469.765625 222.613281 C 468.566406 221.605469 467.183594 220.746094 466.644531 218.59375 C 467.988281 221.507812 470.933594 223.101562 474.308594 221.40625 C 472.972656 220.613281 471.3125 220.296875 470.441406 218.320312 C 472.003906 219.976562 474.238281 221.382812 477.125 220.636719 C 476.445312 220.019531 475.9375 219.84375 475.320312 219.371094 C 474.757812 218.933594 474.339844 218.660156 473.8125 218.21875 C 475.890625 219.429688 477.089844 220.28125 479.027344 219.742188 C 478.03125 218.644531 477.402344 218.960938 476.5625 217.867188 C 478 218.234375 479.128906 219.371094 481.113281 218.375 C 479.328125 218.148438 479.164062 218.21875 477.792969 217.429688 C 476.609375 216.75 476.011719 216.351562 474.546875 216 L 476.6875 216.261719 C 475.855469 215.539062 475.195312 215.109375 473.710938 215.167969 C 473.535156 214.949219 474.816406 214.996094 472.878906 214.441406 C 472.003906 214.191406 471.535156 214.257812 470.480469 214.59375 L 471.042969 214.097656 C 471.199219 213.847656 471.617188 214.050781 470.851562 213.746094 C 469.074219 213.039062 467.089844 214.0625 465.917969 215.007812 C 466.449219 214.453125 467.21875 213.882812 467.761719 213.328125 C 466.070312 213.507812 464.289062 214.496094 463.125 215.5 L 464.410156 213.996094 C 462.304688 214.722656 461.730469 214.480469 459.957031 215.820312 C 459.847656 215.902344 459.71875 215.980469 459.566406 216.0625 C 459.667969 215.945312 459.773438 215.820312 459.890625 215.683594 C 458.867188 215.628906 458.171875 215.691406 457.171875 214.789062 C 459.535156 216 460.457031 214.984375 461.480469 214.550781 C 460.789062 214.480469 460.257812 214.714844 459.339844 214.542969 C 457.988281 214.289062 457.875 213.589844 457.265625 213.316406 C 458.378906 213.730469 460.792969 215.085938 462.378906 213.429688 C 461.226562 213.457031 460.050781 213.660156 458.707031 212.738281 C 460.871094 213.683594 463.265625 213.132812 464.296875 210.554688 C 463.175781 210.773438 462.105469 211.40625 460.664062 210.746094 C 462.332031 210.890625 464.238281 210.582031 465.46875 208.761719 C 464.792969 208.753906 464.433594 208.914062 463.863281 208.945312 C 463.332031 208.980469 462.976562 209.027344 462.46875 209.050781 C 464.207031 208.699219 465.277344 208.582031 466.085938 207.347656 C 465 207.230469 464.8125 207.703125 463.8125 207.519531 C 464.78125 207.015625 465.964844 207.09375 466.566406 205.582031 C 465.472656 206.324219 465.414062 206.445312 464.28125 206.671875 C 463.296875 206.871094 462.777344 206.949219 461.796875 207.46875 L 463.101562 206.570312 C 462.292969 206.578125 461.71875 206.660156 460.9375 207.417969 C 460.730469 207.382812 461.457031 206.785156 460.121094 207.421875 C 459.523438 207.703125 459.292969 207.972656 458.871094 208.664062 L 458.941406 208.121094 C 458.914062 207.910156 459.242188 207.8125 458.671875 208.019531 C 457.347656 208.5 456.75 210.027344 456.566406 211.117188 C 456.589844 210.554688 456.738281 209.867188 456.761719 209.296875 C 455.921875 210.214844 455.417969 211.632812 455.265625 212.742188 L 455.246094 211.292969 C 454.4375 212.71875 454.003906 212.859375 453.679688 214.46875 C 453.574219 215.015625 452.933594 215.84375 453.195312 216.785156 C 452.953125 216.144531 452.398438 215.695312 452.199219 215.3125 C 451.4375 213.871094 450.976562 213.847656 449.796875 212.71875 L 450.1875 214.117188 C 449.730469 213.085938 448.847656 211.871094 447.777344 211.234375 C 447.964844 211.769531 448.300781 212.386719 448.488281 212.921875 C 447.992188 211.925781 446.988281 210.636719 445.589844 210.554688 C 444.984375 210.519531 445.320312 210.511719 445.355469 210.726562 L 445.574219 211.226562 C 444.976562 210.675781 444.679688 210.492188 444.03125 210.386719 C 442.5625 210.15625 443.433594 210.523438 443.242188 210.609375 C 442.273438 210.109375 441.703125 210.199219 440.929688 210.417969 L 442.433594 210.902344 C 441.34375 210.683594 440.824219 210.765625 439.828125 210.847656 C 438.671875 210.949219 438.582031 210.855469 437.324219 210.453125 C 438.332031 211.726562 439.4375 211.324219 440.507812 211.53125 C 439.617188 211.988281 439.285156 211.582031 438.292969 212.007812 C 439.410156 212.960938 440.476562 212.773438 442.230469 212.613281 C 441.746094 212.742188 441.386719 212.792969 440.867188 212.910156 C 440.316406 213.039062 439.917969 212.992188 439.28125 213.191406 C 440.96875 214.582031 442.890625 214.34375 444.449219 213.726562 C 443.253906 214.769531 442.046875 214.46875 440.914062 214.578125 C 441.367188 215.15625 441.871094 215.566406 442.398438 215.835938 C 441.871094 215.777344 441.273438 215.738281 440.421875 215.601562 L 441.9375 216.871094 C 440.625 216.074219 438.703125 215.386719 437.007812 215.492188 C 437.632812 215.949219 438.488281 216.390625 439.109375 216.84375 C 437.789062 216.109375 435.667969 215.421875 434.027344 216.410156 C 433.320312 216.835938 433.703125 216.578125 433.898438 216.789062 L 434.535156 217.179688 C 433.4375 217.023438 432.964844 217.042969 432.148438 217.429688 C 430.320312 218.300781 431.585938 218.046875 431.4375 218.285156 C 429.964844 218.472656 429.386719 219 428.6875 219.859375 L 430.757812 219.242188 C 429.367188 219.832031 428.835938 220.328125 427.789062 221.1875 C 426.566406 222.191406 426.386719 222.15625 424.671875 222.671875 C 426.785156 223.328125 427.710938 222.015625 429.078125 221.417969 C 428.425781 222.636719 427.753906 222.429688 426.949219 223.675781 C 428.949219 223.882812 429.992188 222.847656 431.847656 221.316406 C 431.398438 221.832031 431.035156 222.167969 430.539062 222.695312 C 430.019531 223.265625 429.539062 223.519531 428.976562 224.238281 C 431.949219 224.5 433.910156 222.75 435.1875 220.855469 C 434.65625 222.957031 433.070312 223.539062 431.875 224.535156 C 435.484375 225.65625 438.128906 223.59375 438.976562 220.503906 C 438.800781 222.710938 437.578125 223.789062 436.5625 224.976562 C 439.671875 224.730469 440.308594 221.007812 440.816406 219.476562 C 440.59375 220.351562 441.238281 221.066406 440.339844 222.71875 C 439.734375 223.835938 439.03125 224.191406 438.511719 224.984375 C 439.847656 224.273438 441.710938 224.171875 442.464844 220.636719 C 442.554688 222.46875 441.894531 223.148438 441.078125 224.28125 C 441.261719 224.273438 441.429688 224.269531 441.59375 224.269531 C 441.15625 224.542969 440.664062 224.871094 439.9375 225.261719 L 441.921875 225.332031 C 440.398438 225.511719 438.457031 226.148438 437.1875 227.277344 C 437.957031 227.257812 438.902344 227.078125 439.671875 227.054688 C 438.175781 227.285156 436.085938 228.054688 435.402344 229.835938 C 435.105469 230.605469 435.242188 230.167969 435.523438 230.214844 L 436.273438 230.132812 C 435.3125 230.683594 434.949219 230.992188 434.542969 231.796875 C 433.632812 233.601562 434.472656 232.628906 434.507812 232.90625 C 433.460938 233.960938 433.335938 234.734375 433.300781 235.839844 L 434.554688 234.082031 C 433.820312 235.402344 433.703125 236.113281 433.414062 237.441406 C 433.066406 238.988281 432.894531 239.0625 431.863281 240.53125 C 433.933594 239.742188 433.855469 238.144531 434.570312 236.835938 C 434.804688 238.191406 434.144531 238.445312 434.28125 239.917969 C 435.984375 238.855469 436.171875 237.394531 436.691406 235.042969 C 436.660156 235.730469 436.578125 236.226562 436.511719 236.941406 C 436.445312 237.71875 436.222656 238.203125 436.21875 239.125 C 438.730469 237.496094 439.203125 234.90625 439.046875 232.632812 C 439.914062 234.613281 439.019531 236.054688 438.6875 237.570312 C 442.226562 236.234375 443.046875 232.984375 441.820312 230.023438 C 443.027344 231.878906 442.726562 233.46875 442.65625 235.039062 C 444.957031 232.929688 443.171875 229.597656 442.636719 228.078125 C 443 228.914062 443.941406 229.085938 444.25 230.929688 C 444.457031 232.1875 444.125 232.902344 444.203125 233.84375 C 444.828125 232.460938 446.226562 231.238281 444.648438 227.984375 C 445.851562 229.371094 445.738281 230.320312 445.796875 231.707031 C 448.28125 229.695312 448.0625 229.527344 447.695312 226.6875 C 448.390625 227.929688 448.476562 228.664062 448.273438 229.714844 C 449.257812 229.15625 449.515625 227.972656 449.359375 226.769531 C 449.433594 226.761719 449.507812 226.746094 449.582031 226.734375 C 449.589844 226.800781 449.597656 226.878906 449.605469 226.949219 L 449.605469 226.972656 C 449.605469 227.0625 449.613281 227.160156 449.617188 227.257812 C 449.617188 227.753906 449.542969 228.238281 449.582031 228.84375 C 449.734375 228.726562 449.871094 228.609375 449.988281 228.492188 C 450.421875 229.289062 451.183594 229.816406 452.054688 229.816406 C 452.625 229.816406 453.148438 229.597656 453.558594 229.222656 C 453.910156 230.066406 454.292969 230.765625 454.710938 231.328125 C 454.753906 233.492188 455.21875 236.726562 456.484375 238.445312 C 457.039062 240.207031 457.390625 241.6875 457.527344 242.859375 C 457.554688 243.664062 457.773438 244.351562 458.171875 244.914062 L 458.179688 244.914062 C 458.5 249.164062 459.050781 251.640625 459.832031 252.285156 C 459.832031 252.285156 459.96875 254.660156 460.25 259.402344 Z M 457.746094 217.203125 C 457.65625 217.296875 457.574219 217.40625 457.507812 217.523438 C 457.441406 217.511719 457.375 217.503906 457.3125 217.488281 L 457.359375 217.179688 C 457.5 217.195312 457.628906 217.203125 457.746094 217.203125 Z M 457.230469 217.167969 C 457.128906 217.234375 457.027344 217.304688 456.929688 217.382812 C 456.695312 217.292969 456.449219 217.175781 456.175781 217.007812 C 456.601562 217.074219 456.945312 217.132812 457.230469 217.167969 Z M 456.003906 218.199219 L 455.976562 218.234375 C 455.945312 218.269531 455.910156 218.292969 455.886719 218.328125 C 455.609375 218.246094 455.300781 218.097656 454.941406 217.839844 C 455.265625 217.996094 455.632812 218.121094 456.003906 218.199219 Z M 453.277344 217.03125 C 453.273438 217.003906 453.261719 216.972656 453.25 216.949219 C 453.261719 216.972656 453.277344 217.007812 453.289062 217.039062 C 453.285156 217.039062 453.277344 217.03125 453.277344 217.03125 Z M 451.589844 219.308594 C 451.5625 219.289062 451.535156 219.273438 451.503906 219.261719 C 451.664062 219.152344 451.808594 219.035156 451.953125 218.902344 C 451.824219 219.0625 451.707031 219.191406 451.589844 219.308594 Z M 450.132812 218.847656 C 450.074219 218.8125 450.007812 218.78125 449.941406 218.742188 C 450.121094 218.660156 450.3125 218.558594 450.53125 218.457031 C 450.394531 218.609375 450.261719 218.730469 450.132812 218.847656 Z M 448.101562 217.578125 C 448.027344 217.546875 447.945312 217.511719 447.859375 217.476562 L 447.9375 217.6875 C 447.859375 217.738281 447.777344 217.777344 447.703125 217.820312 C 447.625 217.75 447.554688 217.6875 447.476562 217.628906 C 447.914062 217.449219 448.40625 217.132812 448.945312 216.617188 C 448.671875 217.074219 448.390625 217.363281 448.101562 217.578125 Z M 446.5 217.125 C 446.28125 217.050781 446.070312 216.996094 445.871094 216.933594 C 446.949219 216.542969 447.867188 215.65625 448.429688 215.222656 C 447.929688 215.664062 448.019531 216.363281 446.796875 216.988281 C 446.695312 217.042969 446.589844 217.089844 446.5 217.125 Z M 444.746094 216.480469 C 444.527344 216.375 444.324219 216.292969 444.140625 216.222656 C 445.105469 216.191406 446.0625 215.777344 446.886719 215.085938 C 446.21875 215.910156 445.480469 216.253906 444.746094 216.480469 Z M 458.566406 221.445312 C 458.425781 221.164062 458.300781 220.828125 458.199219 220.402344 C 458.363281 220.789062 458.578125 221.171875 458.824219 221.527344 C 458.726562 221.5 458.636719 221.476562 458.566406 221.445312 Z M 444.667969 223.121094 C 444.949219 222.722656 445.246094 222.191406 445.664062 221.488281 C 445.574219 222.054688 445.464844 222.5 445.308594 222.867188 C 445.082031 222.957031 444.867188 223.054688 444.667969 223.121094 Z M 446.957031 222.53125 C 447.003906 222.441406 447.058594 222.351562 447.097656 222.261719 L 447.277344 222.375 C 447.25 222.441406 447.222656 222.503906 447.1875 222.558594 C 447.113281 222.546875 447.027344 222.539062 446.957031 222.53125 Z M 447.175781 222.121094 C 447.359375 221.71875 447.503906 221.308594 447.601562 220.894531 C 447.566406 221.371094 447.496094 221.75 447.394531 222.0625 C 447.316406 222.078125 447.25 222.097656 447.175781 222.121094 Z M 447.175781 222.121094 " fill-opacity="1" fill-rule="evenodd"/><path fill="#3fd0d4" d="M 474.578125 256.480469 C 475.363281 263.4375 474.203125 267.207031 472.453125 268.21875 C 470 268.402344 468.75 268.78125 466.964844 267.8125 C 466.054688 266.835938 466.175781 262.660156 466.539062 260.386719 C 467.210938 257.585938 467.550781 256.183594 467.550781 256.183594 C 467.417969 253.472656 468.25 250.011719 470.039062 245.800781 C 469.746094 243.628906 470.511719 240.320312 472.285156 235.941406 L 472.273438 235.9375 C 472.066406 234.125 472.929688 231.132812 474.816406 227.007812 L 474.804688 227.003906 C 474.90625 224.960938 475.910156 221.902344 477.816406 217.808594 C 477.929688 216.953125 478.113281 216.027344 478.375 215.007812 L 478.355469 215.015625 C 478.253906 215.671875 477.96875 216.261719 477.449219 216.714844 C 477.449219 216.101562 477.378906 215.582031 477.207031 215.074219 C 476.988281 215.042969 476.769531 214.992188 476.554688 214.90625 C 477.125 216.753906 476.859375 217.421875 474.792969 219.976562 C 474.34375 218.191406 474.222656 216.9375 472.292969 215.464844 C 475.21875 219.25 473.742188 221.21875 473.308594 223.175781 C 472.960938 221.972656 473.191406 220.964844 472.582031 219.394531 C 471.675781 217.078125 470.40625 217.121094 469.710938 216.136719 C 470.824219 217.960938 474.035156 221.78125 471.636719 225.148438 C 471.296875 223.101562 471.257812 220.949219 469.183594 218.882812 C 471.578125 222.378906 471.40625 226.808594 467.195312 229.511719 C 467.199219 227.445312 467.96875 225.347656 466.308594 223.011719 C 467.128906 225.917969 467.21875 229.398438 464.417969 232.1875 C 464.179688 231 464.320312 230.304688 464.199219 229.28125 C 464.082031 228.335938 464.054688 227.683594 463.910156 226.78125 C 463.882812 229.96875 464.035156 231.914062 462.121094 233.746094 C 461.542969 231.878906 462.328125 231.371094 461.652344 229.675781 C 461.089844 231.5625 461.625 233.617188 459.160156 235.203125 C 460.101562 233.019531 460.292969 232.871094 460.320312 230.777344 C 460.339844 228.980469 460.292969 228.027344 460.890625 226.117188 L 459.742188 228.734375 C 459.484375 227.296875 459.433594 226.261719 460.503906 224.613281 C 460.382812 224.261719 459.558594 225.753906 460.246094 223.164062 C 460.546875 222.007812 460.9375 221.515625 462.03125 220.539062 L 461.089844 220.84375 C 460.707031 220.863281 460.648438 221.476562 460.820312 220.394531 C 461.21875 217.894531 463.71875 216.328125 465.59375 215.625 C 464.605469 215.863281 463.433594 216.359375 462.433594 216.589844 C 463.773438 214.785156 466.113281 213.429688 468.035156 212.785156 L 465.457031 213.234375 C 467.707031 211.324219 467.816406 210.503906 470.542969 209.398438 C 471.175781 209.144531 471.9375 208.429688 472.890625 208.03125 C 473.679688 207.40625 474.171875 206.648438 474.640625 205.222656 C 472.203125 208.128906 472.238281 208.488281 468.050781 207.875 C 469.355469 206.578125 470.371094 205.835938 470.652344 203.417969 C 468.894531 207.875 466.445312 207.605469 464.542969 208.234375 C 465.402344 207.316406 466.382812 207.003906 467.417969 205.675781 C 468.949219 203.714844 468.269531 202.640625 468.757812 201.542969 C 467.753906 203.429688 466.113281 208.152344 461.996094 207.800781 C 463.582031 206.464844 465.40625 205.335938 466.128906 202.488281 C 464.34375 206.34375 460.453125 208.453125 455.976562 206.207031 C 457.753906 205.164062 459.949219 204.742188 461.109375 202.128906 C 459.027344 204.316406 456.085938 206.171875 452.261719 205.183594 C 453.152344 204.371094 453.835938 204.144531 454.644531 203.511719 C 455.390625 202.929688 455.945312 202.574219 456.648438 201.992188 C 453.894531 203.589844 452.304688 204.714844 449.742188 204.007812 C 451.054688 202.554688 451.890625 202.964844 453 201.53125 C 451.101562 202.003906 449.605469 203.511719 446.980469 202.203125 C 449.335938 201.898438 449.5625 201.992188 451.375 200.945312 C 452.933594 200.046875 453.730469 199.519531 455.671875 199.050781 L 452.835938 199.398438 C 453.941406 198.445312 454.808594 197.875 456.773438 197.949219 C 457.011719 197.667969 455.308594 197.726562 457.882812 196.992188 C 459.027344 196.660156 459.65625 196.742188 461.050781 197.1875 L 460.304688 196.53125 C 460.09375 196.210938 459.546875 196.472656 460.554688 196.070312 C 462.914062 195.140625 465.53125 196.488281 467.09375 197.738281 C 466.382812 197.011719 465.359375 196.253906 464.652344 195.511719 C 466.882812 195.753906 469.246094 197.0625 470.785156 198.390625 L 469.082031 196.398438 C 471.867188 197.359375 472.628906 197.042969 474.96875 198.820312 C 475.113281 198.925781 475.292969 199.027344 475.492188 199.132812 C 475.355469 198.980469 475.21875 198.816406 475.066406 198.636719 C 476.417969 198.5625 477.332031 198.644531 478.664062 197.449219 C 475.53125 199.050781 474.316406 197.710938 472.960938 197.132812 C 473.878906 197.042969 474.570312 197.347656 475.789062 197.121094 C 477.585938 196.785156 477.726562 195.867188 478.53125 195.5 C 477.0625 196.046875 473.863281 197.847656 471.769531 195.65625 C 473.285156 195.691406 474.847656 195.953125 476.621094 194.738281 C 473.769531 195.992188 470.597656 195.257812 469.230469 191.851562 C 470.714844 192.132812 472.128906 192.980469 474.035156 192.097656 C 471.824219 192.292969 469.304688 191.878906 467.679688 189.476562 C 468.570312 189.46875 469.050781 189.667969 469.800781 189.714844 C 470.5 189.761719 470.980469 189.832031 471.648438 189.851562 C 469.355469 189.394531 467.933594 189.242188 466.871094 187.609375 C 468.296875 187.441406 468.558594 188.082031 469.867188 187.828125 C 468.585938 187.160156 467.027344 187.265625 466.222656 185.265625 C 467.671875 186.246094 467.75 186.40625 469.257812 186.714844 C 470.546875 186.976562 471.242188 187.070312 472.539062 187.765625 L 470.808594 186.578125 C 471.878906 186.585938 472.636719 186.6875 473.679688 187.691406 C 473.949219 187.648438 472.984375 186.851562 474.757812 187.695312 C 475.546875 188.074219 475.855469 188.425781 476.402344 189.351562 L 476.316406 188.632812 C 476.355469 188.347656 475.921875 188.222656 476.679688 188.496094 C 478.429688 189.132812 479.210938 191.144531 479.464844 192.59375 C 479.425781 191.84375 479.234375 190.933594 479.199219 190.183594 C 480.316406 191.398438 480.976562 193.265625 481.183594 194.742188 L 481.210938 192.820312 C 482.28125 194.707031 482.851562 194.902344 483.273438 197.023438 C 483.421875 197.75 484.273438 198.835938 483.914062 200.085938 C 484.246094 199.246094 484.972656 198.648438 485.238281 198.144531 C 486.25 196.234375 486.851562 196.210938 488.410156 194.707031 L 487.894531 196.554688 C 488.507812 195.203125 489.671875 193.589844 491.085938 192.746094 C 490.839844 193.453125 490.394531 194.277344 490.148438 194.984375 C 490.796875 193.667969 492.125 191.957031 493.984375 191.84375 C 494.789062 191.796875 494.335938 191.796875 494.292969 192.070312 L 493.996094 192.738281 C 494.796875 192.011719 495.1875 191.761719 496.050781 191.625 C 497.988281 191.316406 496.839844 191.804688 497.089844 191.921875 C 498.371094 191.261719 499.125 191.371094 500.15625 191.667969 L 498.160156 192.3125 C 499.601562 192.015625 500.292969 192.128906 501.601562 192.234375 C 503.136719 192.371094 503.257812 192.242188 504.921875 191.714844 C 503.582031 193.40625 502.121094 192.863281 500.703125 193.128906 C 501.886719 193.75 502.316406 193.210938 503.644531 193.773438 C 502.160156 195.039062 500.753906 194.785156 498.421875 194.570312 C 499.070312 194.742188 499.542969 194.804688 500.230469 194.964844 C 500.964844 195.132812 501.484375 195.074219 502.332031 195.335938 C 500.09375 197.179688 497.554688 196.855469 495.492188 196.039062 C 497.074219 197.429688 498.675781 197.023438 500.175781 197.175781 C 499.574219 197.933594 498.90625 198.472656 498.207031 198.832031 C 498.90625 198.761719 499.699219 198.714844 500.820312 198.519531 L 498.8125 200.203125 C 500.546875 199.152344 503.085938 198.238281 505.332031 198.375 C 504.507812 198.988281 503.375 199.566406 502.558594 200.167969 C 504.304688 199.195312 507.109375 198.292969 509.277344 199.601562 C 510.214844 200.164062 509.710938 199.8125 509.449219 200.09375 L 508.605469 200.625 C 510.054688 200.410156 510.6875 200.429688 511.761719 200.945312 C 514.179688 202.09375 512.511719 201.753906 512.703125 202.078125 C 514.65625 202.324219 515.417969 203.027344 516.34375 204.152344 L 513.601562 203.339844 C 515.453125 204.125 516.144531 204.773438 517.53125 205.917969 C 519.148438 207.25 519.390625 207.195312 521.664062 207.878906 C 518.855469 208.75 517.632812 207.007812 515.835938 206.222656 C 516.695312 207.828125 517.585938 207.558594 518.640625 209.207031 C 516 209.480469 514.621094 208.117188 512.164062 206.082031 C 512.761719 206.769531 513.246094 207.214844 513.890625 207.914062 C 514.585938 208.671875 515.21875 209.007812 515.964844 209.957031 C 512.035156 210.300781 509.429688 207.984375 507.742188 205.476562 C 508.449219 208.253906 510.554688 209.027344 512.128906 210.351562 C 507.351562 211.832031 503.855469 209.105469 502.730469 205.015625 C 502.96875 207.9375 504.582031 209.359375 505.929688 210.933594 C 501.808594 210.601562 500.964844 205.675781 500.292969 203.648438 C 500.597656 204.820312 499.746094 205.761719 500.933594 207.945312 C 501.734375 209.417969 502.65625 209.894531 503.347656 210.945312 C 501.578125 210.003906 499.117188 209.867188 498.117188 205.1875 C 497.996094 207.613281 498.871094 208.511719 499.953125 210.003906 C 499.710938 210.003906 499.484375 209.996094 499.273438 209.992188 C 499.847656 210.351562 500.492188 210.785156 501.453125 211.308594 L 498.839844 211.40625 C 500.855469 211.636719 503.417969 212.488281 505.105469 213.972656 C 504.082031 213.945312 502.832031 213.707031 501.808594 213.679688 C 503.789062 213.980469 506.554688 214.996094 507.46875 217.363281 C 507.859375 218.382812 507.675781 217.800781 507.296875 217.859375 L 506.316406 217.757812 C 507.582031 218.488281 508.066406 218.890625 508.597656 219.957031 C 509.800781 222.347656 508.699219 221.054688 508.640625 221.425781 C 510.035156 222.820312 510.199219 223.84375 510.242188 225.296875 L 508.582031 222.976562 C 509.554688 224.722656 509.703125 225.671875 510.09375 227.421875 C 510.550781 229.46875 510.777344 229.570312 512.140625 231.507812 C 509.402344 230.46875 509.503906 228.351562 508.5625 226.617188 C 508.257812 228.410156 509.128906 228.746094 508.941406 230.695312 C 506.691406 229.296875 506.445312 227.359375 505.757812 224.257812 C 505.808594 225.160156 505.914062 225.808594 505.992188 226.761719 C 506.078125 227.785156 506.367188 228.4375 506.382812 229.648438 C 503.0625 227.5 502.4375 224.070312 502.640625 221.054688 C 501.496094 223.683594 502.675781 225.585938 503.109375 227.601562 C 498.433594 225.828125 497.347656 221.527344 498.976562 217.605469 C 497.367188 220.058594 497.769531 222.175781 497.863281 224.238281 C 494.824219 221.445312 497.179688 217.042969 497.890625 215.03125 C 497.410156 216.136719 496.160156 216.359375 495.753906 218.808594 C 495.480469 220.46875 495.914062 221.410156 495.824219 222.660156 C 494.996094 220.835938 493.140625 219.214844 495.226562 214.90625 C 493.640625 216.75 493.777344 217.996094 493.710938 219.832031 C 490.429688 217.167969 490.710938 216.953125 491.199219 213.191406 C 490.277344 214.839844 490.160156 215.8125 490.4375 217.195312 C 489.128906 216.464844 488.789062 214.894531 488.992188 213.300781 C 488.898438 213.292969 488.804688 213.273438 488.699219 213.253906 C 488.6875 213.347656 488.679688 213.445312 488.671875 213.542969 L 488.671875 213.570312 C 488.671875 213.699219 488.664062 213.824219 488.65625 213.9375 C 488.652344 214.605469 488.753906 215.246094 488.699219 216.039062 C 488.5 215.890625 488.320312 215.738281 488.164062 215.589844 C 487.59375 216.636719 486.578125 217.332031 485.425781 217.332031 C 484.675781 217.332031 483.988281 217.042969 483.441406 216.546875 C 482.972656 217.660156 482.464844 218.589844 481.910156 219.328125 C 481.855469 222.191406 481.246094 226.480469 479.5625 228.746094 C 478.832031 231.089844 478.375 233.039062 478.1875 234.59375 C 478.148438 235.65625 477.859375 236.5625 477.332031 237.308594 L 477.324219 237.308594 C 476.898438 242.9375 476.179688 246.203125 475.136719 247.066406 C 475.136719 247.066406 474.949219 250.203125 474.578125 256.480469 Z M 477.898438 200.644531 C 478.015625 200.773438 478.121094 200.910156 478.21875 201.0625 C 478.300781 201.054688 478.390625 201.039062 478.472656 201.019531 L 478.402344 200.613281 C 478.222656 200.636719 478.058594 200.644531 477.898438 200.644531 Z M 478.574219 200.59375 C 478.714844 200.691406 478.855469 200.78125 478.988281 200.875 C 479.289062 200.765625 479.609375 200.601562 479.980469 200.390625 C 479.417969 200.472656 478.957031 200.546875 478.574219 200.59375 Z M 480.207031 201.960938 L 480.242188 202.003906 C 480.28125 202.050781 480.324219 202.09375 480.359375 202.132812 C 480.730469 202.023438 481.128906 201.824219 481.609375 201.488281 C 481.175781 201.703125 480.695312 201.867188 480.207031 201.960938 Z M 483.8125 200.417969 C 483.824219 200.375 483.832031 200.339844 483.847656 200.304688 C 483.824219 200.347656 483.8125 200.390625 483.789062 200.429688 C 483.796875 200.421875 483.804688 200.417969 483.8125 200.417969 Z M 486.042969 203.429688 C 486.082031 203.410156 486.117188 203.390625 486.160156 203.371094 C 485.945312 203.222656 485.753906 203.066406 485.570312 202.902344 C 485.734375 203.109375 485.890625 203.28125 486.042969 203.429688 Z M 487.964844 202.820312 C 488.054688 202.777344 488.136719 202.730469 488.226562 202.675781 C 487.992188 202.566406 487.734375 202.441406 487.445312 202.304688 C 487.628906 202.503906 487.800781 202.667969 487.964844 202.820312 Z M 490.660156 201.144531 C 490.765625 201.097656 490.867188 201.050781 490.980469 201.007812 L 490.875 201.289062 C 490.980469 201.351562 491.082031 201.414062 491.191406 201.460938 C 491.28125 201.371094 491.382812 201.289062 491.484375 201.207031 C 490.902344 200.96875 490.265625 200.554688 489.539062 199.867188 C 489.910156 200.472656 490.277344 200.863281 490.660156 201.144531 Z M 492.785156 200.546875 C 493.0625 200.441406 493.347656 200.371094 493.605469 200.292969 C 492.1875 199.761719 490.96875 198.597656 490.222656 198.027344 C 490.890625 198.609375 490.765625 199.535156 492.394531 200.371094 C 492.523438 200.4375 492.652344 200.492188 492.785156 200.546875 Z M 495.101562 199.6875 C 495.390625 199.550781 495.652344 199.441406 495.902344 199.347656 C 494.625 199.304688 493.351562 198.761719 492.261719 197.839844 C 493.144531 198.933594 494.128906 199.394531 495.101562 199.6875 Z M 476.824219 206.261719 C 477 205.890625 477.160156 205.4375 477.296875 204.878906 C 477.082031 205.386719 476.804688 205.898438 476.472656 206.371094 C 476.597656 206.335938 476.714844 206.292969 476.824219 206.261719 Z M 495.199219 208.472656 C 494.832031 207.949219 494.4375 207.25 493.882812 206.308594 C 493.996094 207.0625 494.148438 207.648438 494.363281 208.144531 C 494.660156 208.257812 494.9375 208.382812 495.199219 208.472656 Z M 492.179688 207.695312 C 492.109375 207.578125 492.042969 207.453125 491.980469 207.332031 L 491.75 207.488281 C 491.789062 207.570312 491.820312 207.65625 491.863281 207.738281 C 491.972656 207.71875 492.074219 207.703125 492.179688 207.695312 Z M 491.890625 207.144531 C 491.644531 206.625 491.453125 206.074219 491.324219 205.53125 C 491.363281 206.15625 491.460938 206.660156 491.597656 207.078125 C 491.691406 207.097656 491.789062 207.121094 491.890625 207.144531 Z M 491.890625 207.144531 " fill-opacity="1" fill-rule="evenodd"/></svg>